<svg width="800" height="600" viewBox="0 0 800 600" fill="none" xmlns="http://www.w3.org/2000/svg">
  <rect width="800" height="600" rx="40" fill="#F5F3ED"/>
  <ellipse cx="440" cy="320" rx="240" ry="135" fill="#F9F5EA"/>
  <circle cx="235" cy="230" r="80" fill="#FCFAF4"/>
  <path d="M206 154C208 112 233 78 272 63C264 104 268 139 285 168" stroke="#8A6746" stroke-width="18" stroke-linecap="round"/>
  <path d="M163 216C142 192 137 157 151 128C164 100 194 82 224 83C254 83 282 100 297 125" stroke="#8A6746" stroke-width="18" stroke-linecap="round"/>
  <circle cx="224" cy="225" r="12" fill="#1C1B19"/>
  <path d="M257 294L272 506M371 310L387 524M506 312L521 525M598 302L613 509" stroke="#D0B28A" stroke-width="18" stroke-linecap="round"/>
  <path d="M214 505H245M327 523H358M464 525H495M560 509H591" stroke="#1C1B19" stroke-width="12" stroke-linecap="round"/>
  <path d="M138 250C161 275 190 287 225 288" stroke="#D39D78" stroke-width="10" stroke-linecap="round"/>
</svg>
