<svg width="940" height="320" viewBox="0 0 940 320" fill="none" xmlns="http://www.w3.org/2000/svg">
  <rect width="940" height="320" rx="24" fill="white"/>
  <path d="M90 90H510V156H90V90Z" fill="black"/>
  <path d="M90 156H510V250H90V156Z" fill="black"/>
  <path d="M537 118C565 88 603 73 640 74C656 57 676 48 701 48C694 61 693 74 696 88C714 90 731 96 747 108C768 101 794 103 816 116C842 132 858 160 860 190C862 220 850 248 827 268C798 294 753 301 709 292C686 287 665 278 648 263C622 263 597 257 576 241C548 219 530 186 530 151C530 139 532 128 537 118Z" fill="black"/>
  <path d="M619 168C635 146 659 136 683 139C706 142 726 157 735 178C740 189 741 201 738 214C721 212 705 207 691 197C675 186 664 173 655 157C643 160 631 163 619 168Z" fill="white"/>
  <path d="M118 106H160V140H151V116H145L142 131H134L131 116H127V140H118V106Z" fill="white"/>
  <path d="M170 106H236V118H194V123H227V134H194V140H236V152H170V106Z" fill="white"/>
  <path d="M246 106H308V118H286V152H268V118H246V106Z" fill="white"/>
  <path d="M319 106H365C383 106 395 115 395 129C395 140 388 147 374 150L397 152L372 152L354 141H337V152H319V106ZM361 130C369 130 376 128 376 122C376 116 370 115 361 115H337V130H361Z" fill="white"/>
  <path d="M406 106H475V118H430V123H463V134H430V140H475V152H406V106Z" fill="white"/>
  <path d="M119 172H174C195 172 208 182 208 198C208 215 194 225 174 225H136V250H119V172ZM171 211C182 211 189 207 189 198C189 190 182 186 171 186H136V211H171Z" fill="white"/>
  <path d="M218 172H286V186H243V194H276V207H243V236H286V250H218V172Z" fill="white"/>
  <path d="M298 172H334L352 202L370 172H406V250H388V198L357 250H347L316 198V250H298V172Z" fill="white"/>
  <path d="M418 172H487V186H442V194H475V207H442V236H487V250H418V172Z" fill="white"/>
  <path d="M129 266H144V286H129V266Z" fill="white"/>
  <path d="M155 266H171V277L186 266H205L184 279L207 296H187L171 283V296H155V266Z" fill="white"/>
</svg>
